<svg xmlns="http://www.w3.org/2000/svg" xmlns:xlink="http://www.w3.org/1999/xlink" width="500" zoomAndPan="magnify" viewBox="0 0 375 374.999991" height="500" preserveAspectRatio="xMidYMid meet" version="1.0"><defs><g/></defs><g fill="#ffde59" fill-opacity="1"><g transform="translate(37.562022, 333.327184)"><g><path d="M 26.1875 -196.21875 C 22.6875 -212.9375 19.421875 -226.4375 16.390625 -236.71875 C 13.359375 -247.007812 10.554688 -255.140625 7.984375 -261.109375 C 5.421875 -267.078125 2.757812 -271.898438 0 -275.578125 L 90.671875 -275.578125 C 88.273438 -272.273438 86.984375 -267.632812 86.796875 -261.65625 C 86.617188 -255.6875 87.492188 -247.46875 89.421875 -237 C 91.347656 -226.53125 94.054688 -212.9375 97.546875 -196.21875 L 124.015625 -84.609375 C 124.566406 -82.585938 126.035156 -81.578125 128.421875 -81.578125 C 129.703125 -81.578125 130.941406 -81.988281 132.140625 -82.8125 C 133.335938 -83.632812 134.207031 -84.875 134.75 -86.53125 C 137.320312 -94.800781 138.378906 -104.078125 137.921875 -114.359375 C 137.460938 -124.648438 136.128906 -135.535156 133.921875 -147.015625 C 131.722656 -158.503906 129.382812 -170.125 126.90625 -181.875 C 124.425781 -193.632812 122.3125 -205.207031 120.5625 -216.59375 C 118.820312 -227.988281 118.179688 -238.691406 118.640625 -248.703125 C 119.097656 -258.722656 121.253906 -267.679688 125.109375 -275.578125 L 192.078125 -275.578125 C 189.503906 -267.304688 188.398438 -256.925781 188.765625 -244.4375 C 189.140625 -231.945312 190.566406 -218.394531 193.046875 -203.78125 C 195.523438 -189.175781 198.554688 -174.476562 202.140625 -159.6875 C 205.722656 -144.90625 209.441406 -130.851562 213.296875 -117.53125 C 217.148438 -104.207031 220.734375 -92.679688 224.046875 -82.953125 C 224.960938 -80.742188 226.335938 -79.640625 228.171875 -79.640625 C 230.015625 -79.640625 231.210938 -80.648438 231.765625 -82.671875 C 234.515625 -90.941406 235.660156 -100.265625 235.203125 -110.640625 C 234.742188 -121.023438 233.457031 -132.050781 231.34375 -143.71875 C 229.226562 -155.382812 226.882812 -167.28125 224.3125 -179.40625 C 221.75 -191.53125 219.59375 -203.425781 217.84375 -215.09375 C 216.09375 -226.757812 215.445312 -237.734375 215.90625 -248.015625 C 216.375 -258.304688 218.535156 -267.492188 222.390625 -275.578125 L 299.828125 -275.578125 C 297.253906 -271.898438 294.632812 -267.078125 291.96875 -261.109375 C 289.3125 -255.140625 286.507812 -247.007812 283.5625 -236.71875 C 280.625 -226.4375 277.320312 -212.9375 273.65625 -196.21875 L 227.078125 0 L 170.3125 0 L 151.5625 -79.09375 C 150.46875 -83.3125 149.367188 -83.3125 148.265625 -79.09375 L 129.515625 0 L 72.75 0 Z M 26.1875 -196.21875 "/></g></g></g></svg>