<svg xmlns="http://www.w3.org/2000/svg" xmlns:xlink="http://www.w3.org/1999/xlink" width="500" zoomAndPan="magnify" viewBox="0 0 375 374.999991" height="500" preserveAspectRatio="xMidYMid meet" version="1.0"><defs><g/></defs><rect x="-37.5" width="450" fill="#ffffff" y="-37.499999" height="449.999989" fill-opacity="1"/><rect x="-37.5" width="450" fill="#ffde59" y="-37.499999" height="449.999989" fill-opacity="1"/><g fill="#000000" fill-opacity="1"><g transform="translate(116.589878, 232.271824)"><g><path d="M 8.609375 -4.828125 C 4.085938 -8.847656 1.828125 -14.003906 1.828125 -20.296875 C 1.828125 -26.597656 4.175781 -31.769531 8.875 -35.8125 C 13.582031 -39.851562 19.398438 -41.875 26.328125 -41.875 C 33.148438 -41.875 38.898438 -39.835938 43.578125 -35.765625 C 48.253906 -31.691406 50.59375 -26.535156 50.59375 -20.296875 C 50.59375 -14.054688 48.304688 -8.914062 43.734375 -4.875 C 39.160156 -0.832031 33.359375 1.1875 26.328125 1.1875 C 19.035156 1.1875 13.128906 -0.816406 8.609375 -4.828125 Z M 19.46875 -27.203125 C 17.644531 -25.398438 16.734375 -23.097656 16.734375 -20.296875 C 16.734375 -17.492188 17.601562 -15.207031 19.34375 -13.4375 C 21.09375 -11.664062 23.394531 -10.78125 26.25 -10.78125 C 29 -10.78125 31.257812 -11.679688 33.03125 -13.484375 C 34.800781 -15.285156 35.6875 -17.554688 35.6875 -20.296875 C 35.6875 -23.097656 34.773438 -25.398438 32.953125 -27.203125 C 31.128906 -29.003906 28.894531 -29.90625 26.25 -29.90625 C 23.550781 -29.90625 21.289062 -29.003906 19.46875 -27.203125 Z M 19.46875 -27.203125 "/></g></g></g><g fill="#000000" fill-opacity="1"><g transform="translate(161.547116, 232.271824)"><g><path d="M 4.765625 0 L 4.765625 -40.6875 L 18.796875 -40.6875 L 18.796875 -34.8125 L 18.953125 -34.8125 C 19.054688 -35.03125 19.226562 -35.296875 19.46875 -35.609375 C 19.707031 -35.929688 20.222656 -36.488281 21.015625 -37.28125 C 21.804688 -38.070312 22.648438 -38.785156 23.546875 -39.421875 C 24.453125 -40.054688 25.617188 -40.625 27.046875 -41.125 C 28.472656 -41.625 29.925781 -41.875 31.40625 -41.875 C 32.9375 -41.875 34.441406 -41.660156 35.921875 -41.234375 C 37.410156 -40.816406 38.5 -40.394531 39.1875 -39.96875 L 40.296875 -39.34375 L 34.421875 -27.4375 C 32.671875 -28.914062 30.238281 -29.65625 27.125 -29.65625 C 25.4375 -29.65625 23.984375 -29.285156 22.765625 -28.546875 C 21.546875 -27.804688 20.6875 -26.90625 20.1875 -25.84375 C 19.6875 -24.789062 19.328125 -23.894531 19.109375 -23.15625 C 18.898438 -22.414062 18.796875 -21.835938 18.796875 -21.421875 L 18.796875 0 Z M 4.765625 0 "/></g></g></g><g fill="#000000" fill-opacity="1"><g transform="translate(193.579516, 232.271824)"><g><path d="M 51.234375 -40.6875 L 31.890625 -21.25 L 53.140625 0 L 35.0625 0 L 18.796875 -16.265625 L 18.796875 0 L 4.765625 0 L 4.765625 -68.203125 L 18.796875 -68.203125 L 18.796875 -26.484375 L 33 -40.6875 Z M 51.234375 -40.6875 "/></g></g></g><g fill="#000000" fill-opacity="1"><g transform="translate(237.34735, 232.271824)"><g><path d="M 55.046875 -65.4375 L 55.046875 -23.234375 C 55.046875 -15.203125 52.875 -9.125 48.53125 -5 C 44.195312 -0.875 37.851562 1.1875 29.5 1.1875 C 21.144531 1.1875 14.800781 -0.875 10.46875 -5 C 6.132812 -9.125 3.96875 -15.203125 3.96875 -23.234375 L 3.96875 -65.4375 L 18.875 -65.4375 L 18.875 -27.59375 C 18.875 -22.3125 19.707031 -18.640625 21.375 -16.578125 C 23.039062 -14.515625 25.75 -13.484375 29.5 -13.484375 C 33.257812 -13.484375 35.96875 -14.515625 37.625 -16.578125 C 39.289062 -18.640625 40.125 -22.3125 40.125 -27.59375 L 40.125 -65.4375 Z M 55.046875 -65.4375 "/></g></g></g><g fill="#000000" fill-opacity="1"><g transform="translate(288.885944, 232.271824)"><g><path d="M 46.625 -35.640625 C 50.4375 -31.492188 52.34375 -26.40625 52.34375 -20.375 C 52.34375 -14.351562 50.4375 -9.253906 46.625 -5.078125 C 42.820312 -0.898438 37.988281 1.1875 32.125 1.1875 C 26.726562 1.1875 22.285156 -0.503906 18.796875 -3.890625 L 18.796875 20.625 L 4.765625 20.625 L 4.765625 -40.6875 L 18.640625 -40.6875 L 18.640625 -36.09375 L 18.796875 -36.09375 C 22.285156 -39.945312 26.726562 -41.875 32.125 -41.875 C 37.988281 -41.875 42.820312 -39.796875 46.625 -35.640625 Z M 34.703125 -13.484375 C 36.523438 -15.285156 37.4375 -17.585938 37.4375 -20.390625 C 37.4375 -23.191406 36.5625 -25.476562 34.8125 -27.25 C 33.070312 -29.019531 30.773438 -29.90625 27.921875 -29.90625 C 25.171875 -29.90625 22.910156 -29.003906 21.140625 -27.203125 C 19.367188 -25.398438 18.484375 -23.128906 18.484375 -20.390625 C 18.484375 -17.585938 19.394531 -15.285156 21.21875 -13.484375 C 23.039062 -11.679688 25.273438 -10.78125 27.921875 -10.78125 C 30.617188 -10.78125 32.878906 -11.679688 34.703125 -13.484375 Z M 34.703125 -13.484375 "/></g></g></g><g fill="#000000" fill-opacity="1"><g transform="translate(25.292067, 238.745844)"><g><path d="M 9.5 -71.15625 C 8.226562 -77.21875 7.039062 -82.113281 5.9375 -85.84375 C 4.84375 -89.570312 3.828125 -92.519531 2.890625 -94.6875 C 1.960938 -96.851562 1 -98.601562 0 -99.9375 L 32.875 -99.9375 C 32.007812 -98.738281 31.539062 -97.054688 31.46875 -94.890625 C 31.40625 -92.722656 31.722656 -89.738281 32.421875 -85.9375 C 33.128906 -82.144531 34.113281 -77.21875 35.375 -71.15625 L 44.96875 -30.6875 C 45.164062 -29.945312 45.703125 -29.578125 46.578125 -29.578125 C 47.035156 -29.578125 47.476562 -29.726562 47.90625 -30.03125 C 48.34375 -30.332031 48.664062 -30.78125 48.875 -31.375 C 49.800781 -34.375 50.179688 -37.738281 50.015625 -41.46875 C 49.847656 -45.207031 49.363281 -49.15625 48.5625 -53.3125 C 47.769531 -57.476562 46.921875 -61.691406 46.015625 -65.953125 C 45.117188 -70.222656 44.351562 -74.421875 43.71875 -78.546875 C 43.082031 -82.679688 42.847656 -86.5625 43.015625 -90.1875 C 43.179688 -93.820312 43.96875 -97.070312 45.375 -99.9375 L 69.65625 -99.9375 C 68.71875 -96.9375 68.316406 -93.171875 68.453125 -88.640625 C 68.585938 -84.109375 69.101562 -79.191406 70 -73.890625 C 70.90625 -68.597656 72.003906 -63.269531 73.296875 -57.90625 C 74.597656 -52.550781 75.945312 -47.457031 77.34375 -42.625 C 78.75 -37.789062 80.050781 -33.609375 81.25 -30.078125 C 81.582031 -29.273438 82.082031 -28.875 82.75 -28.875 C 83.414062 -28.875 83.847656 -29.242188 84.046875 -29.984375 C 85.046875 -32.984375 85.460938 -36.363281 85.296875 -40.125 C 85.128906 -43.882812 84.660156 -47.878906 83.890625 -52.109375 C 83.128906 -56.347656 82.28125 -60.664062 81.34375 -65.0625 C 80.414062 -69.457031 79.632812 -73.769531 79 -78 C 78.363281 -82.226562 78.128906 -86.207031 78.296875 -89.9375 C 78.460938 -93.675781 79.25 -97.007812 80.65625 -99.9375 L 108.734375 -99.9375 C 107.796875 -98.601562 106.84375 -96.851562 105.875 -94.6875 C 104.914062 -92.519531 103.898438 -89.570312 102.828125 -85.84375 C 101.765625 -82.113281 100.566406 -77.21875 99.234375 -71.15625 L 82.34375 0 L 61.765625 0 L 54.96875 -28.6875 C 54.5625 -30.21875 54.160156 -30.21875 53.765625 -28.6875 L 46.96875 0 L 26.390625 0 Z M 9.5 -71.15625 "/></g></g></g></svg>